<mxfile host="Electron" modified="2024-04-21T11:45:44.995Z" agent="Mozilla/5.0 (Macintosh; Intel Mac OS X 10_15_7) AppleWebKit/537.36 (KHTML, like Gecko) draw.io/24.2.5 Chrome/120.0.6099.109 Electron/28.1.0 Safari/537.36" etag="52GUIRZ2CGVzLE_Z6PpJ" version="24.2.5" type="device">
  <diagram name="Page-1" id="9o0cyyo62Rgul4wmD-rs">
    <mxGraphModel dx="1102" dy="592" grid="1" gridSize="10" guides="1" tooltips="1" connect="1" arrows="1" fold="1" page="1" pageScale="1" pageWidth="850" pageHeight="1100" math="0" shadow="0">
      <root>
        <mxCell id="0" />
        <mxCell id="1" parent="0" />
        <mxCell id="aLShEfeX5zoQX90HyYBT-1" value="AWS Cloud" style="points=[[0,0],[0.25,0],[0.5,0],[0.75,0],[1,0],[1,0.25],[1,0.5],[1,0.75],[1,1],[0.75,1],[0.5,1],[0.25,1],[0,1],[0,0.75],[0,0.5],[0,0.25]];outlineConnect=0;gradientColor=none;html=1;whiteSpace=wrap;fontSize=12;fontStyle=0;container=1;pointerEvents=0;collapsible=0;recursiveResize=0;shape=mxgraph.aws4.group;grIcon=mxgraph.aws4.group_aws_cloud_alt;strokeColor=#232F3E;fillColor=none;verticalAlign=top;align=left;spacingLeft=30;fontColor=#232F3E;dashed=0;" vertex="1" parent="1">
          <mxGeometry x="110" y="160" width="760" height="360" as="geometry" />
        </mxCell>
        <mxCell id="aLShEfeX5zoQX90HyYBT-2" value="AWS Organization" style="points=[[0,0],[0.25,0],[0.5,0],[0.75,0],[1,0],[1,0.25],[1,0.5],[1,0.75],[1,1],[0.75,1],[0.5,1],[0.25,1],[0,1],[0,0.75],[0,0.5],[0,0.25]];outlineConnect=0;gradientColor=none;html=1;whiteSpace=wrap;fontSize=12;fontStyle=0;container=0;pointerEvents=0;collapsible=0;recursiveResize=0;shape=mxgraph.aws4.group;grIcon=mxgraph.aws4.organizations;strokeColor=#CD2264;fillColor=none;verticalAlign=top;align=left;spacingLeft=30;fontColor=#CD2264;dashed=0;" vertex="1" parent="aLShEfeX5zoQX90HyYBT-1">
          <mxGeometry x="40" y="40" width="680" height="300" as="geometry" />
        </mxCell>
        <mxCell id="aLShEfeX5zoQX90HyYBT-4" value="AWS Account" style="points=[[0,0],[0.25,0],[0.5,0],[0.75,0],[1,0],[1,0.25],[1,0.5],[1,0.75],[1,1],[0.75,1],[0.5,1],[0.25,1],[0,1],[0,0.75],[0,0.5],[0,0.25]];outlineConnect=0;gradientColor=none;html=1;whiteSpace=wrap;fontSize=12;fontStyle=0;container=1;pointerEvents=0;collapsible=0;recursiveResize=0;shape=mxgraph.aws4.group;grIcon=mxgraph.aws4.organizations_organizational_unit2;strokeColor=#CD2264;fillColor=none;verticalAlign=top;align=left;spacingLeft=30;fontColor=#CD2264;dashed=0;" vertex="1" parent="aLShEfeX5zoQX90HyYBT-1">
          <mxGeometry x="50" y="80" width="650" height="240" as="geometry" />
        </mxCell>
        <mxCell id="aLShEfeX5zoQX90HyYBT-17" style="edgeStyle=orthogonalEdgeStyle;rounded=0;orthogonalLoop=1;jettySize=auto;html=1;exitX=1;exitY=0.5;exitDx=0;exitDy=0;exitPerimeter=0;" edge="1" parent="aLShEfeX5zoQX90HyYBT-4" source="aLShEfeX5zoQX90HyYBT-6" target="aLShEfeX5zoQX90HyYBT-10">
          <mxGeometry relative="1" as="geometry" />
        </mxCell>
        <mxCell id="aLShEfeX5zoQX90HyYBT-6" value="Bronze&lt;div&gt;Raw Data&lt;/div&gt;" style="sketch=0;points=[[0,0,0],[0.25,0,0],[0.5,0,0],[0.75,0,0],[1,0,0],[0,1,0],[0.25,1,0],[0.5,1,0],[0.75,1,0],[1,1,0],[0,0.25,0],[0,0.5,0],[0,0.75,0],[1,0.25,0],[1,0.5,0],[1,0.75,0]];outlineConnect=0;fontColor=#232F3E;fillColor=#7AA116;strokeColor=#ffffff;dashed=0;verticalLabelPosition=bottom;verticalAlign=top;align=center;html=1;fontSize=12;fontStyle=0;aspect=fixed;shape=mxgraph.aws4.resourceIcon;resIcon=mxgraph.aws4.s3;" vertex="1" parent="aLShEfeX5zoQX90HyYBT-4">
          <mxGeometry x="160" y="124.17000000000002" width="50" height="50" as="geometry" />
        </mxCell>
        <mxCell id="aLShEfeX5zoQX90HyYBT-18" style="edgeStyle=orthogonalEdgeStyle;rounded=0;orthogonalLoop=1;jettySize=auto;html=1;exitX=1;exitY=0.5;exitDx=0;exitDy=0;exitPerimeter=0;" edge="1" parent="aLShEfeX5zoQX90HyYBT-4" source="aLShEfeX5zoQX90HyYBT-10" target="aLShEfeX5zoQX90HyYBT-12">
          <mxGeometry relative="1" as="geometry" />
        </mxCell>
        <mxCell id="aLShEfeX5zoQX90HyYBT-10" value="Glue" style="sketch=0;points=[[0,0,0],[0.25,0,0],[0.5,0,0],[0.75,0,0],[1,0,0],[0,1,0],[0.25,1,0],[0.5,1,0],[0.75,1,0],[1,1,0],[0,0.25,0],[0,0.5,0],[0,0.75,0],[1,0.25,0],[1,0.5,0],[1,0.75,0]];outlineConnect=0;fontColor=#232F3E;fillColor=#8C4FFF;strokeColor=#ffffff;dashed=0;verticalLabelPosition=bottom;verticalAlign=top;align=center;html=1;fontSize=12;fontStyle=0;aspect=fixed;shape=mxgraph.aws4.resourceIcon;resIcon=mxgraph.aws4.glue;" vertex="1" parent="aLShEfeX5zoQX90HyYBT-4">
          <mxGeometry x="280" y="124.17000000000002" width="50" height="50" as="geometry" />
        </mxCell>
        <mxCell id="aLShEfeX5zoQX90HyYBT-11" value="Glue Catalog" style="sketch=0;outlineConnect=0;fontColor=#232F3E;gradientColor=none;fillColor=#8C4FFF;strokeColor=none;dashed=0;verticalLabelPosition=bottom;verticalAlign=top;align=center;html=1;fontSize=12;fontStyle=0;aspect=fixed;pointerEvents=1;shape=mxgraph.aws4.glue_data_catalog;" vertex="1" parent="aLShEfeX5zoQX90HyYBT-4">
          <mxGeometry x="280" y="30" width="50" height="54.17" as="geometry" />
        </mxCell>
        <mxCell id="aLShEfeX5zoQX90HyYBT-19" style="edgeStyle=orthogonalEdgeStyle;rounded=0;orthogonalLoop=1;jettySize=auto;html=1;exitX=1;exitY=0.5;exitDx=0;exitDy=0;exitPerimeter=0;" edge="1" parent="aLShEfeX5zoQX90HyYBT-4" source="aLShEfeX5zoQX90HyYBT-12" target="aLShEfeX5zoQX90HyYBT-13">
          <mxGeometry relative="1" as="geometry" />
        </mxCell>
        <mxCell id="aLShEfeX5zoQX90HyYBT-12" value="Silver&lt;div&gt;Validated&lt;/div&gt;" style="sketch=0;points=[[0,0,0],[0.25,0,0],[0.5,0,0],[0.75,0,0],[1,0,0],[0,1,0],[0.25,1,0],[0.5,1,0],[0.75,1,0],[1,1,0],[0,0.25,0],[0,0.5,0],[0,0.75,0],[1,0.25,0],[1,0.5,0],[1,0.75,0]];outlineConnect=0;fontColor=#232F3E;fillColor=#7AA116;strokeColor=#ffffff;dashed=0;verticalLabelPosition=bottom;verticalAlign=top;align=center;html=1;fontSize=12;fontStyle=0;aspect=fixed;shape=mxgraph.aws4.resourceIcon;resIcon=mxgraph.aws4.s3;" vertex="1" parent="aLShEfeX5zoQX90HyYBT-4">
          <mxGeometry x="410" y="124.17000000000002" width="50" height="50" as="geometry" />
        </mxCell>
        <mxCell id="aLShEfeX5zoQX90HyYBT-13" value="Athena" style="sketch=0;points=[[0,0,0],[0.25,0,0],[0.5,0,0],[0.75,0,0],[1,0,0],[0,1,0],[0.25,1,0],[0.5,1,0],[0.75,1,0],[1,1,0],[0,0.25,0],[0,0.5,0],[0,0.75,0],[1,0.25,0],[1,0.5,0],[1,0.75,0]];outlineConnect=0;fontColor=#232F3E;fillColor=#8C4FFF;strokeColor=#ffffff;dashed=0;verticalLabelPosition=bottom;verticalAlign=top;align=center;html=1;fontSize=12;fontStyle=0;aspect=fixed;shape=mxgraph.aws4.resourceIcon;resIcon=mxgraph.aws4.athena;" vertex="1" parent="aLShEfeX5zoQX90HyYBT-4">
          <mxGeometry x="540" y="124.17000000000002" width="50" height="50" as="geometry" />
        </mxCell>
        <mxCell id="aLShEfeX5zoQX90HyYBT-9" value="EMR" style="sketch=0;points=[[0,0,0],[0.25,0,0],[0.5,0,0],[0.75,0,0],[1,0,0],[0,1,0],[0.25,1,0],[0.5,1,0],[0.75,1,0],[1,1,0],[0,0.25,0],[0,0.5,0],[0,0.75,0],[1,0.25,0],[1,0.5,0],[1,0.75,0]];outlineConnect=0;fontColor=#232F3E;fillColor=#8C4FFF;strokeColor=#ffffff;dashed=0;verticalLabelPosition=bottom;verticalAlign=top;align=center;html=1;fontSize=12;fontStyle=0;aspect=fixed;shape=mxgraph.aws4.resourceIcon;resIcon=mxgraph.aws4.emr;" vertex="1" parent="aLShEfeX5zoQX90HyYBT-4">
          <mxGeometry x="30" y="124.17000000000002" width="50" height="50" as="geometry" />
        </mxCell>
        <mxCell id="aLShEfeX5zoQX90HyYBT-14" value="Lake Formation" style="sketch=0;points=[[0,0,0],[0.25,0,0],[0.5,0,0],[0.75,0,0],[1,0,0],[0,1,0],[0.25,1,0],[0.5,1,0],[0.75,1,0],[1,1,0],[0,0.25,0],[0,0.5,0],[0,0.75,0],[1,0.25,0],[1,0.5,0],[1,0.75,0]];outlineConnect=0;fontColor=#232F3E;fillColor=#8C4FFF;strokeColor=#ffffff;dashed=0;verticalLabelPosition=bottom;verticalAlign=top;align=center;html=1;fontSize=12;fontStyle=0;aspect=fixed;shape=mxgraph.aws4.resourceIcon;resIcon=mxgraph.aws4.lake_formation;" vertex="1" parent="aLShEfeX5zoQX90HyYBT-4">
          <mxGeometry x="470" y="34.17" width="50" height="50" as="geometry" />
        </mxCell>
        <mxCell id="aLShEfeX5zoQX90HyYBT-16" style="edgeStyle=orthogonalEdgeStyle;rounded=0;orthogonalLoop=1;jettySize=auto;html=1;exitX=1;exitY=0.5;exitDx=0;exitDy=0;exitPerimeter=0;entryX=0;entryY=0.5;entryDx=0;entryDy=0;entryPerimeter=0;" edge="1" parent="aLShEfeX5zoQX90HyYBT-4" source="aLShEfeX5zoQX90HyYBT-9" target="aLShEfeX5zoQX90HyYBT-6">
          <mxGeometry relative="1" as="geometry" />
        </mxCell>
        <mxCell id="aLShEfeX5zoQX90HyYBT-15" style="edgeStyle=orthogonalEdgeStyle;rounded=0;orthogonalLoop=1;jettySize=auto;html=1;" edge="1" parent="1" source="aLShEfeX5zoQX90HyYBT-8" target="aLShEfeX5zoQX90HyYBT-9">
          <mxGeometry relative="1" as="geometry" />
        </mxCell>
        <mxCell id="aLShEfeX5zoQX90HyYBT-8" value="Data Source" style="shape=datastore;whiteSpace=wrap;html=1;" vertex="1" parent="1">
          <mxGeometry x="20" y="364.17" width="50" height="50" as="geometry" />
        </mxCell>
        <mxCell id="aLShEfeX5zoQX90HyYBT-21" style="edgeStyle=orthogonalEdgeStyle;rounded=0;orthogonalLoop=1;jettySize=auto;html=1;" edge="1" parent="1" source="aLShEfeX5zoQX90HyYBT-20" target="aLShEfeX5zoQX90HyYBT-13">
          <mxGeometry relative="1" as="geometry" />
        </mxCell>
        <mxCell id="aLShEfeX5zoQX90HyYBT-20" value="users" style="sketch=0;outlineConnect=0;gradientColor=none;fontColor=#545B64;strokeColor=none;fillColor=#879196;dashed=0;verticalLabelPosition=bottom;verticalAlign=top;align=center;html=1;fontSize=12;fontStyle=0;aspect=fixed;shape=mxgraph.aws4.illustration_users;pointerEvents=1" vertex="1" parent="1">
          <mxGeometry x="910" y="364.17" width="50" height="50" as="geometry" />
        </mxCell>
      </root>
    </mxGraphModel>
  </diagram>
</mxfile>
